<svg version="1.2" xmlns="http://www.w3.org/2000/svg" viewBox="0 0 325 59" width="325" height="59">
	<title>yellowpixel-logo-svg</title>
	<defs>
		<clipPath clipPathUnits="userSpaceOnUse" id="cp1">
			<path d="m0 0h325v59h-325z" />
		</clipPath>
	</defs>
	<style>
		.s0 { fill: #f9cf01 } 
		.s1 { fill: #ffffff } 
	</style>
	<g id="Clip-Path: Mask_Group_1" clip-path="url(#cp1)">
		<g id="Mask_Group_1">
			<g id="YellowPixel-Logo">
				<g id="Group_161">
					<path id="Path_1" class="s0" d="m19.5 32.7v-12.9h13v8.5q-0.1 0.9-0.4 1.7q-0.3 0.8-0.9 1.4q-0.7 0.6-1.5 1q-0.8 0.3-1.7 0.3h-8.5z" />
					<path id="Path_2" fill-rule="evenodd" class="s0" d="m127.3 26.3q0 0.3 0 0.6q-0.1 0.3-0.1 0.6q0 0.3-0.1 0.6q0 0.3-0.1 0.6h-20.7c0.5 1.2 1.2 2.3 2.2 3.1c1 0.8 2.2 1.3 3.4 1.5c1.3 0.2 2.6 0 3.8-0.4c1.1-0.5 2.2-1.3 2.9-2.3h7.9q-0.8 2.1-2.1 3.8q-1.4 1.7-3.2 3q-1.8 1.2-3.9 1.8q-2.1 0.6-4.3 0.6c-7.8 0-14.2-6-14.2-13.5c0-7.6 6.3-13.6 14.2-13.6c7.9 0 14.3 6.1 14.3 13.6zm-7.6-2.5c-0.5-1.4-1.4-2.6-2.6-3.4c-1.2-0.8-2.6-1.3-4.1-1.3c-1.4 0-2.8 0.5-4 1.3c-1.2 0.8-2.1 2-2.7 3.4z" />
					<path id="Rectangle_179" class="s0" d="m129.3 4.9h7.1v34.2h-7.1z" />
					<path id="Rectangle_180" class="s0" d="m139.7 4.9h7.1v34.2h-7.1z" />
					<path id="Path_3" fill-rule="evenodd" class="s0" d="m162.9 39.8c-3.7 0.2-7.3-1.2-10-3.7c-2.7-2.6-4.2-6.1-4.2-9.8c0-3.7 1.5-7.3 4.2-9.8c2.7-2.6 6.3-4 10-3.8c7.8 0 14.1 6.1 14.1 13.6c0 7.5-6.3 13.5-14.1 13.5zm0-20.6c-2.9-0.1-5.6 1.7-6.7 4.3c-1.1 2.7-0.5 5.7 1.5 7.8c2 2.1 5.1 2.7 7.8 1.6c2.6-1.1 4.4-3.7 4.4-6.6q0-1.4-0.5-2.7q-0.6-1.3-1.6-2.3q-0.9-1-2.2-1.6q-1.3-0.5-2.7-0.5z" />
					<path id="Path_4" class="s0" d="m175.6 13.5h7.7l5.7 14.7l5.8-14.7h4.7l5.9 14.7l5.7-14.7h7.7l-10.6 25.6h-5.7l-5.3-13.6l-5.4 13.6h-5.7z" />
					<path id="Path_5" fill-rule="evenodd" class="s1" d="m247.3 26.3c-0.1 1.8-0.5 3.6-1.2 5.2c-0.7 1.7-1.8 3.2-3.1 4.5c-1.3 1.2-2.8 2.2-4.5 2.9c-1.7 0.6-3.5 1-5.3 0.9q-1 0-1.9-0.2q-1-0.2-1.9-0.5q-0.9-0.4-1.7-0.9q-0.8-0.6-1.5-1.2v10.6h-7.1v-21.3c0.1-3.7 1.6-7.2 4.3-9.7c2.6-2.5 6.1-4 9.8-4c3.6 0 7.1 1.5 9.8 4c2.6 2.5 4.1 6 4.3 9.7zm-7.2 0c0-2.9-1.7-5.5-4.3-6.6c-2.7-1.1-5.8-0.5-7.8 1.5c-2 2.1-2.6 5.1-1.5 7.8c1.1 2.6 3.7 4.4 6.5 4.4q1.4 0 2.8-0.6q1.3-0.5 2.3-1.5q1-1 1.5-2.3q0.5-1.3 0.5-2.7z" />
					<path id="Path_6" class="s0" d="m255 10.2h-5.5v-7.3h7.3v5.4q0 0.4-0.1 0.7q-0.2 0.4-0.4 0.6q-0.3 0.3-0.6 0.4q-0.4 0.2-0.7 0.2z" />
					<path id="Rectangle_181" class="s1" d="m249.6 13.5h7.1v25.6h-7.1z" />
					<path id="Path_7" class="s1" d="m258.3 39.1l10.3-13.4l-9.2-12.2h8.5l5 7l5.1-7h8.5l-9.3 12.2l10.3 13.4h-8.6l-6-8.3l-6 8.3z" />
					<path id="Path_8" fill-rule="evenodd" class="s1" d="m314.5 26.3q0 0.3 0 0.6q0 0.3 0 0.6q-0.1 0.3-0.1 0.6q-0.1 0.3-0.1 0.6h-20.7c0.5 1.2 1.2 2.3 2.2 3.1c1 0.8 2.2 1.3 3.4 1.5c1.3 0.2 2.5 0 3.7-0.4c1.2-0.5 2.2-1.3 3-2.3h7.9q-0.8 2.1-2.1 3.8q-1.4 1.7-3.2 3q-1.8 1.2-3.9 1.8q-2.1 0.6-4.3 0.6c-7.8 0-14.2-6-14.2-13.5c0-7.6 6.3-13.6 14.2-13.6c7.9 0 14.2 6.1 14.2 13.6zm-7.5-2.5c-0.5-1.4-1.4-2.6-2.6-3.4c-1.2-0.8-2.6-1.3-4.1-1.3c-1.4 0-2.8 0.5-4 1.3c-1.2 0.8-2.1 2-2.6 3.4z" />
					<path id="Rectangle_182" class="s1" d="m316.6 4.9h7.1v34.2h-7.1z" />
					<g id="Group_160">
						<g id="Group_159">
							<path id="Path_9" class="s0" d="m79.8 12.9l6.7 14.9l6.7-14.9h7.8l-15.7 34.5h-8l5.3-11.7l-10.6-22.8z" />
						</g>
					</g>
					<path id="Path_10" class="s0" d="m21.8 1.5v9.7h-10.9v11h-9.7v-20.7z" />
					<path id="Path_11" class="s0" d="m50.7 30.4v20.7h-20.7v-9.7h11v-11z" />
					<path id="Path_12" class="s1" d="m10.9 47.8h10.9v9.7h-20.6v-20.7h9.7z" />
					<path id="Path_13" class="s0" d="m50.7 1.5v20.7h-9.7v-11h-11v-9.7z" />
				</g>
			</g>
		</g>
	</g>
</svg>